<?xml version="1.0" standalone="no"?><svg xmlns="http://www.w3.org/2000/svg" viewBox="0 0 1440 320"><path fill="#273036" fill-opacity="1" d="M0,192L30,208C60,224,120,256,180,266.7C240,277,300,267,360,261.3C420,256,480,256,540,256C600,256,660,256,720,266.7C780,277,840,299,900,293.3C960,288,1020,256,1080,229.3C1140,203,1200,181,1260,186.7C1320,192,1380,224,1410,240L1440,256L1440,320L1410,320C1380,320,1320,320,1260,320C1200,320,1140,320,1080,320C1020,320,960,320,900,320C840,320,780,320,720,320C660,320,600,320,540,320C480,320,420,320,360,320C300,320,240,320,180,320C120,320,60,320,30,320L0,320Z"></path></svg>